<?xml version="1.0" standalone="no"?><!DOCTYPE svg PUBLIC "-//W3C//DTD SVG 1.1//EN" "http://www.w3.org/Graphics/SVG/1.1/DTD/svg11.dtd"><svg t="1617267883736" class="icon" viewBox="0 0 1024 1024" version="1.1" xmlns="http://www.w3.org/2000/svg" p-id="1265" xmlns:xlink="http://www.w3.org/1999/xlink" width="200" height="200"><defs><style type="text/css"></style></defs><path d="M113.664 288.256l370.176 588.288c7.168 11.776 24.064 12.288 32.256 1.024l144.384-194.048c7.168-9.728 21.504-10.752 29.696-1.536l77.824 81.92c11.776 12.288 32.768 4.608 33.792-12.288L814.08 532.48c0.512-5.632 3.072-11.264 7.68-14.336l120.32-92.16c13.824-10.24 8.192-32.256-8.704-34.816L133.632 258.56c-16.384-2.56-28.672 15.36-19.968 29.696z" fill="#FFF152" p-id="1266"></path><path d="M500.736 893.44h-1.024c-9.216-0.512-17.408-5.12-22.016-12.8L107.52 292.352c-5.632-9.216-5.632-20.48 0.512-29.696 6.144-9.216 16.384-13.824 27.136-11.776l799.744 132.096c10.752 2.048 19.456 9.728 22.016 20.48s-1.024 21.504-9.728 28.16l-120.32 92.16c-2.56 2.048-4.608 5.12-4.608 8.704l-11.776 219.648c-0.512 11.264-7.168 20.48-17.92 24.064-10.24 3.584-21.504 1.024-29.184-6.656l-77.824-81.92c-2.56-2.56-5.632-4.096-9.216-3.584-3.584 0-6.656 2.048-8.704 4.608l-144.384 194.048c-5.632 6.656-13.824 10.752-22.528 10.752z m-380.416-609.28l370.176 588.288c2.048 3.584 5.632 5.632 9.728 5.632 4.096 0 7.68-1.536 10.24-4.608l144.384-194.048c4.608-6.656 12.288-10.24 20.48-10.752 8.192-0.512 15.872 2.56 21.504 8.704l77.824 81.92c3.584 3.584 8.192 4.608 12.8 3.072 4.608-1.536 7.68-5.632 7.68-10.752l11.776-219.648c0.512-8.192 4.096-15.36 10.752-20.48l120.32-92.16c4.096-3.072 5.632-7.68 4.096-12.288-1.024-4.608-4.608-8.192-9.728-8.704L132.608 266.24c-4.608-1.024-9.216 1.024-11.776 5.12s-3.072 8.704-0.512 12.8z" fill="#2E66FF" p-id="1267"></path><path d="M128.512 276.48l559.616 388.608 92.16 93.184c4.096 4.096 11.264 1.536 11.264-4.608l12.288-236.032L130.048 272.384c-2.048-1.024-4.096 2.56-1.536 4.096z" fill="#C9E6FF" p-id="1268"></path><path d="M784.384 764.928c-3.072 0-6.144-1.024-8.192-3.584l-91.648-92.672L125.44 280.576c-3.072-2.048-4.096-6.144-2.56-9.216s5.632-4.608 9.216-3.584L808.96 514.048l-12.8 239.616c0 4.608-3.072 8.704-7.68 10.24-1.024 1.024-2.56 1.024-4.096 1.024zM150.016 285.184L691.2 660.48l92.16 93.696c0.512 0.512 1.536 0.512 1.536 0.512 0.512 0 1.024-0.512 1.024-1.536l12.288-231.936L150.016 285.184z" fill="#FFB5EC" p-id="1269"></path></svg>