<?xml version="1.0" encoding="UTF-8"?>
<svg width="20px" height="22px" viewBox="0 0 20 22" version="1.1" xmlns="http://www.w3.org/2000/svg" xmlns:xlink="http://www.w3.org/1999/xlink">
    <title>我的-2</title>
    <defs>
        <polygon id="path-1" points="0 0.7412 19.8906 0.7412 19.8906 9 0 9"></polygon>
        <polygon id="path-3" points="0 0.741 19.8906 0.741 19.8906 9 0 9"></polygon>
    </defs>
    <g id="普通" stroke="none" stroke-width="1" fill="none" fill-rule="evenodd">
        <g id="画板" transform="translate(-138.000000, -169.000000)">
            <g id="我的-2" transform="translate(135.000000, 167.000000)">
                <g id="编组" transform="translate(3.000000, 2.000000)">
                    <path d="M15.7616,0 L9.9456,0 C6.3246,0 3.4766,3.309 4.2606,7.067 C4.7186,9.266 6.4956,11.043 8.6936,11.501 C9.1186,11.59 9.5366,11.632 9.9456,11.632 C13.1576,11.632 15.7616,9.027 15.7616,5.816 L15.7616,0 Z M13.7616,2 L13.7616,5.816 C13.7616,7.92 12.0496,9.632 9.9456,9.632 C9.6676,9.632 9.3836,9.602 9.1016,9.543 C7.6746,9.246 6.5156,8.087 6.2186,6.659 C5.9706,5.475 6.2426,4.321 6.9826,3.411 C7.7116,2.515 8.7916,2 9.9456,2 L13.7616,2 L13.7616,2 Z" id="Fill-1" fill="#FA5B3C"></path>
                    <g transform="translate(0.000000, 13.000000)">
                        <mask id="mask-2" fill="white">
                            <use xlink:href="#path-1"></use>
                        </mask>
                        <g id="Clip-4"></g>
                        <path d="M15.7616,0.7412 L4.1296,0.7412 C1.8586,0.7412 -0.0004,2.5992 -0.0004,4.8702 C-0.0004,7.1412 1.8586,9.0002 4.1296,9.0002 L15.7616,9.0002 C18.0326,9.0002 19.8906,7.1412 19.8906,4.8702 C19.8906,2.5992 18.0326,0.7412 15.7616,0.7412 M15.7616,2.7412 C16.9356,2.7412 17.8906,3.6962 17.8906,4.8702 C17.8906,6.0452 16.9356,7.0002 15.7616,7.0002 L4.1296,7.0002 C2.9556,7.0002 1.9996,6.0452 1.9996,4.8702 C1.9996,3.6962 2.9556,2.7412 4.1296,2.7412 L15.7616,2.7412" id="Fill-3" fill="#FA5B3C" mask="url(#mask-2)"></path>
                    </g>
                    <g>
                        <path d="M15.7616,5.8154 C15.7616,9.4364 12.4526,12.2844 8.6936,11.5014 C6.4956,11.0434 4.7186,9.2654 4.2606,7.0674 C3.4766,3.3084 6.3246,0.0004 9.9456,0.0004 L15.7616,0.0004 L15.7616,5.8154 Z" id="Fill-5" fill="#FA5B3C" opacity="0.400000006"></path>
                        <g transform="translate(0.000000, 13.000000)">
                            <mask id="mask-4" fill="white">
                                <use xlink:href="#path-3"></use>
                            </mask>
                            <g id="Clip-8"></g>
                            <path d="M15.7616,9 L4.1296,9 C1.8586,9 -0.0004,7.142 -0.0004,4.87 C-0.0004,2.6 1.8586,0.741 4.1296,0.741 L15.7616,0.741 C18.0326,0.741 19.8906,2.6 19.8906,4.87 C19.8906,7.142 18.0326,9 15.7616,9" id="Fill-7" fill="#FA5B3C" opacity="0.400000006" mask="url(#mask-4)"></path>
                        </g>
                    </g>
                </g>
            </g>
        </g>
    </g>
</svg>