<?xml version="1.0" encoding="UTF-8"?>
<svg width="20px" height="22px" viewBox="0 0 20 22" version="1.1" xmlns="http://www.w3.org/2000/svg" xmlns:xlink="http://www.w3.org/1999/xlink">
    <title>我的-1</title>
    <defs>
        <polygon id="path-1" points="0.0002 0.7412 19.891 0.7412 19.891 9 0.0002 9"></polygon>
    </defs>
    <g id="普通" stroke="none" stroke-width="1" fill="none" fill-rule="evenodd">
        <g id="画板" transform="translate(-138.000000, -207.000000)">
            <g id="我的-1" transform="translate(135.000000, 205.000000)">
                <g id="编组" transform="translate(3.000000, 2.000000)">
                    <path d="M15.7612,0 L9.9452,0 C6.3242,0 3.4772,3.309 4.2602,7.067 C4.7182,9.266 6.4952,11.043 8.6942,11.501 C9.1182,11.59 9.5362,11.632 9.9452,11.632 C13.1572,11.632 15.7612,9.027 15.7612,5.816 L15.7612,0 Z M13.7612,2 L13.7612,5.816 C13.7612,7.92 12.0492,9.632 9.9452,9.632 C9.6672,9.632 9.3842,9.602 9.1022,9.543 C7.6742,9.246 6.5152,8.087 6.2182,6.659 C5.9712,5.475 6.2422,4.321 6.9822,3.411 C7.7112,2.515 8.7912,2 9.9452,2 L13.7612,2 L13.7612,2 Z" id="Fill-1" fill="#9C9C9C"></path>
                    <g transform="translate(0.000000, 13.000000)">
                        <mask id="mask-2" fill="white">
                            <use xlink:href="#path-1"></use>
                        </mask>
                        <g id="Clip-4"></g>
                        <path d="M15.7612,0.7412 L4.1292,0.7412 C1.8582,0.7412 0.0002,2.5992 0.0002,4.8702 C0.0002,7.1412 1.8582,9.0002 4.1292,9.0002 L15.7612,9.0002 C18.0322,9.0002 19.8912,7.1412 19.8912,4.8702 C19.8912,2.5992 18.0322,0.7412 15.7612,0.7412 M15.7612,2.7412 C16.9352,2.7412 17.8912,3.6962 17.8912,4.8702 C17.8912,6.0452 16.9352,7.0002 15.7612,7.0002 L4.1292,7.0002 C2.9552,7.0002 2.0002,6.0452 2.0002,4.8702 C2.0002,3.6962 2.9552,2.7412 4.1292,2.7412 L15.7612,2.7412" id="Fill-3" fill="#9C9C9C" mask="url(#mask-2)"></path>
                    </g>
                </g>
            </g>
        </g>
    </g>
</svg>