<?xml version="1.0" encoding="UTF-8"?>
<svg width="23px" height="19px" viewBox="0 0 23 19" version="1.1" xmlns="http://www.w3.org/2000/svg" xmlns:xlink="http://www.w3.org/1999/xlink">
    <title>学习-2</title>
    <g id="普通" stroke="none" stroke-width="1" fill="none" fill-rule="evenodd">
        <g id="画板" transform="translate(-99.000000, -171.000000)">
            <g id="学习-2" transform="translate(97.000000, 167.000000)">
                <g id="编组" transform="translate(3.000000, 5.000000)">
                    <path d="M10.2328,3.5842 C10.2328,2.2542 10.9688,1.0332 12.1458,0.4132 C12.6608,0.1422 13.2348,0.0002 13.8168,0.0002 L20.4648,0.0002 L20.4648,15.6812 L13.2228,15.6812 C13.0308,15.6812 12.8408,15.7282 12.6708,15.8172 L11.1888,16.5992 C10.5898,16.9142 9.8748,16.9142 9.2768,16.5992 L7.7938,15.8172 C7.6238,15.7282 7.4348,15.6812 7.2418,15.6812 L-0.0002,15.6812 L-0.0002,0.0002 L6.6478,0.0002 C7.2308,0.0002 7.8038,0.1422 8.3198,0.4132 C9.4958,1.0332 10.2328,2.2542 10.2328,3.5842 L10.2328,12.4802" id="Fill-1" fill="#FA5B3C" opacity="0.400000006"></path>
                    <path d="M10.2328,3.5842 C10.2328,2.2542 10.9688,1.0332 12.1458,0.4132 C12.6608,0.1422 13.2348,0.0002 13.8168,0.0002 L20.4648,0.0002 L20.4648,15.6812 L13.2228,15.6812 C13.0308,15.6812 12.8408,15.7282 12.6708,15.8172 L11.1888,16.5992 C10.5898,16.9142 9.8748,16.9142 9.2768,16.5992 L7.7938,15.8172 C7.6238,15.7282 7.4348,15.6812 7.2418,15.6812 L-0.0002,15.6812 L-0.0002,0.0002 L6.6478,0.0002 C7.2308,0.0002 7.8038,0.1422 8.3198,0.4132 C9.4958,1.0332 10.2328,2.2542 10.2328,3.5842 L10.2328,12.4802" id="Stroke-3" stroke="#FA5B3C" stroke-width="2" stroke-linecap="round" stroke-linejoin="round"></path>
                    <path d="M3.6048,6.1467 C3.7908,6.0997 6.8368,6.1467 6.8368,6.1467" id="Stroke-5" stroke="#FA5B3C" stroke-width="2" stroke-linecap="round" stroke-linejoin="round"></path>
                    <path d="M3.6048,10.6682 C3.7908,10.6212 6.8368,10.6682 6.8368,10.6682" id="Stroke-7" stroke="#FA5B3C" stroke-width="2" stroke-linecap="round" stroke-linejoin="round"></path>
                    <path d="M13.4071,6.1565 C13.5931,6.1105 16.5811,6.1565 16.5811,6.1565" id="Stroke-9" stroke="#FA5B3C" stroke-width="2" stroke-linecap="round" stroke-linejoin="round"></path>
                    <path d="M13.4071,10.6789 C13.5931,10.6319 16.5811,10.6789 16.5811,10.6789" id="Stroke-11" stroke="#FA5B3C" stroke-width="2" stroke-linecap="round" stroke-linejoin="round"></path>
                </g>
            </g>
        </g>
    </g>
</svg>